<mxfile host="app.diagrams.net" modified="2022-10-22T05:54:20.341Z" agent="5.0 (Windows NT 10.0; Win64; x64) AppleWebKit/537.36 (KHTML, like Gecko) Chrome/106.0.0.0 Safari/537.36 Edg/106.0.1370.47" etag="w2d-JO_5KxsN4yhrzT8Y" version="20.4.0" type="github">
  <diagram id="dY9aSzTucE9fL7qV33QU" name="第 1 页">
    <mxGraphModel dx="1038" dy="634" grid="1" gridSize="10" guides="1" tooltips="1" connect="1" arrows="1" fold="1" page="1" pageScale="1" pageWidth="827" pageHeight="1169" math="0" shadow="0">
      <root>
        <mxCell id="0" />
        <mxCell id="1" parent="0" />
        <mxCell id="f6hcrhnnZ-mqnc1Tao0L-2" value="" style="rounded=0;whiteSpace=wrap;html=1;" vertex="1" parent="1">
          <mxGeometry x="220" y="310" width="50" height="30" as="geometry" />
        </mxCell>
        <mxCell id="f6hcrhnnZ-mqnc1Tao0L-5" value="" style="rounded=0;whiteSpace=wrap;html=1;" vertex="1" parent="1">
          <mxGeometry x="270" y="310" width="50" height="30" as="geometry" />
        </mxCell>
        <mxCell id="f6hcrhnnZ-mqnc1Tao0L-6" value="" style="rounded=0;whiteSpace=wrap;html=1;" vertex="1" parent="1">
          <mxGeometry x="320" y="310" width="50" height="30" as="geometry" />
        </mxCell>
        <mxCell id="f6hcrhnnZ-mqnc1Tao0L-7" value="" style="rounded=0;whiteSpace=wrap;html=1;" vertex="1" parent="1">
          <mxGeometry x="370" y="310" width="50" height="30" as="geometry" />
        </mxCell>
        <mxCell id="f6hcrhnnZ-mqnc1Tao0L-8" value="" style="rounded=0;whiteSpace=wrap;html=1;" vertex="1" parent="1">
          <mxGeometry x="420" y="310" width="50" height="30" as="geometry" />
        </mxCell>
        <mxCell id="f6hcrhnnZ-mqnc1Tao0L-9" value="变量" style="text;html=1;strokeColor=none;fillColor=none;align=center;verticalAlign=middle;whiteSpace=wrap;rounded=0;" vertex="1" parent="1">
          <mxGeometry x="120" y="310" width="60" height="30" as="geometry" />
        </mxCell>
        <mxCell id="f6hcrhnnZ-mqnc1Tao0L-10" value="a" style="text;html=1;strokeColor=none;fillColor=none;align=center;verticalAlign=middle;whiteSpace=wrap;rounded=0;" vertex="1" parent="1">
          <mxGeometry x="265" y="270" width="60" height="30" as="geometry" />
        </mxCell>
        <mxCell id="f6hcrhnnZ-mqnc1Tao0L-11" value="b" style="text;html=1;strokeColor=none;fillColor=none;align=center;verticalAlign=middle;whiteSpace=wrap;rounded=0;" vertex="1" parent="1">
          <mxGeometry x="315" y="270" width="60" height="30" as="geometry" />
        </mxCell>
        <mxCell id="f6hcrhnnZ-mqnc1Tao0L-12" value="c" style="text;html=1;strokeColor=none;fillColor=none;align=center;verticalAlign=middle;whiteSpace=wrap;rounded=0;" vertex="1" parent="1">
          <mxGeometry x="365" y="270" width="60" height="30" as="geometry" />
        </mxCell>
      </root>
    </mxGraphModel>
  </diagram>
</mxfile>
